<?xml version="1.0" standalone="no"?>
<!DOCTYPE svg PUBLIC "-//W3C//DTD SVG 20010904//EN"
 "http://www.w3.org/TR/2001/REC-SVG-20010904/DTD/svg10.dtd">
<svg version="1.0" xmlns="http://www.w3.org/2000/svg"
 width="518.000000pt" height="690.000000pt" viewBox="0 0 518.000000 690.000000"
 preserveAspectRatio="xMidYMid meet">

<g transform="translate(0.000000,690.000000) scale(0.100000,-0.100000)"
fill="#000000" stroke="none">
<path d="M240 6891 c-114 -36 -186 -104 -219 -208 l-21 -68 2 -3190 3 -3190
22 -47 c31 -67 86 -123 151 -155 l57 -28 2355 0 2355 0 54 28 c67 36 115 86
149 157 l27 55 3 468 c2 318 -1 467 -8 467 -5 0 -10 7 -10 15 0 8 4 15 8 15
12 0 12 74 -1 82 -8 5 -8 13 0 30 14 30 16 151 2 125 -6 -9 -11 -35 -12 -58
-1 -41 -25 -68 -47 -54 -13 8 -13 -1 2 -25 15 -24 4 -37 -17 -20 -10 8 -15 9
-15 1 0 -6 5 -11 11 -11 5 0 7 -4 4 -10 -3 -5 0 -10 7 -10 8 0 6 -5 -4 -11
-10 -5 -18 -22 -18 -37 0 -20 -3 -23 -9 -13 -8 13 -12 13 -27 0 -9 -8 -20 -13
-23 -11 -3 2 -11 -12 -17 -32 -10 -29 -10 -35 2 -40 9 -3 14 1 14 14 0 22 0
22 47 24 18 1 29 -2 26 -7 -3 -5 -13 -7 -23 -4 -15 4 -17 0 -14 -21 3 -14 -1
-29 -8 -33 -10 -7 -10 -9 -1 -9 7 0 10 -7 7 -15 -4 -10 0 -15 11 -15 12 0 15
-5 11 -16 -3 -9 -6 -28 -6 -44 0 -27 -1 -28 -32 -19 -35 10 -51 3 -28 -12 10
-6 12 -11 4 -16 -13 -9 -15 -43 -3 -43 5 0 11 11 15 25 3 14 11 25 18 25 14 0
38 -49 30 -62 -3 -5 -6 -25 -6 -43 0 -36 -21 -65 -33 -45 -11 18 -25 11 -36
-17 -10 -26 -12 -27 -23 -11 -16 21 -26 23 -26 4 0 -9 -19 -16 -60 -20 -66 -8
-92 -26 -36 -26 43 0 55 -15 20 -24 l-26 -7 26 -24 c15 -14 26 -28 25 -32 -1
-5 9 -13 22 -20 13 -7 29 -19 35 -28 8 -10 14 -12 19 -6 10 17 33 13 54 -11
24 -25 13 -48 -25 -48 -35 0 -73 -20 -67 -36 3 -8 -1 -14 -11 -14 -9 0 -16 -7
-16 -15 0 -8 -5 -15 -11 -15 -6 0 -9 -7 -5 -15 3 -9 -3 -24 -13 -34 -12 -12
-16 -23 -10 -32 13 -20 11 -29 -6 -29 -8 0 -15 6 -15 14 0 8 -5 18 -11 22 -9
5 -10 -1 -5 -20 5 -19 3 -26 -4 -21 -17 11 -60 -4 -60 -20 0 -8 7 -15 15 -15
26 0 17 -17 -16 -31 -28 -11 -33 -10 -44 4 -7 9 -18 17 -26 17 -11 0 -11 2 1
11 11 8 12 12 2 16 -6 2 -12 11 -12 20 0 20 -24 11 -28 -12 -5 -24 18 -65 37
-66 12 0 10 -4 -6 -16 -31 -21 -29 -33 7 -33 43 0 28 -28 -18 -32 -27 -2 -39
-10 -52 -32 -14 -25 -23 -30 -63 -32 -52 -3 -70 12 -41 33 15 11 16 15 5 22
-9 6 -10 11 -2 15 6 4 11 13 11 21 0 11 -6 12 -31 3 -17 -6 -28 -16 -26 -23 3
-6 1 -18 -3 -25 -5 -7 -4 -23 0 -35 7 -18 4 -25 -16 -34 -27 -12 -24 -31 4
-32 12 0 9 -3 -7 -10 -18 -7 -28 -6 -41 6 -9 8 -27 15 -41 15 -18 0 -20 3 -10
9 8 5 20 7 27 4 20 -7 27 17 10 36 -9 10 -16 23 -16 29 0 17 -6 15 -36 -13
-15 -14 -33 -25 -40 -25 -8 0 -14 -4 -14 -10 0 -17 -61 -11 -89 9 -24 17 -33
18 -67 9 -21 -7 -73 -12 -116 -12 -42 -1 -79 -4 -83 -8 -4 -4 -23 -1 -42 7
-44 19 -113 10 -153 -20 -24 -18 -40 -21 -74 -18 -24 3 -52 0 -63 -6 -23 -12
-144 -25 -213 -23 -25 0 -59 8 -75 16 -38 20 -59 20 -75 1 -7 -8 -17 -12 -22
-9 -6 4 -14 1 -18 -7 -6 -9 -12 -10 -22 -2 -23 18 -56 22 -62 7 -3 -8 -11 -14
-17 -14 -8 0 -8 4 0 14 10 12 8 17 -9 26 -16 9 -25 9 -33 1 -8 -8 -8 -11 2
-11 7 0 10 -4 6 -10 -3 -5 -12 -7 -20 -4 -8 4 -12 11 -8 18 4 6 -1 5 -10 -3
-9 -7 -17 -10 -17 -5 0 4 -5 3 -11 -3 -9 -9 -17 -6 -31 13 -24 29 -47 30 -129
4 -56 -18 -64 -19 -71 -5 -11 18 -32 21 -23 3 4 -7 -1 -4 -9 6 -9 11 -16 14
-16 8 0 -7 -4 -12 -10 -12 -5 0 -10 7 -10 16 0 13 -6 15 -27 8 -16 -4 -73 -8
-128 -8 -55 -1 -105 -5 -112 -9 -7 -4 -29 -7 -50 -6 -21 1 -54 -1 -73 -5 -19
-3 -61 -8 -92 -12 -50 -6 -58 -4 -58 10 0 9 -7 16 -15 16 -8 0 -15 -4 -15 -9
0 -5 -32 -9 -71 -10 -39 0 -74 -3 -78 -5 -4 -3 -38 4 -76 14 -39 11 -106 22
-150 25 -75 6 -82 4 -114 -19 -19 -15 -39 -26 -45 -26 -5 0 -17 -7 -27 -16
-14 -13 -22 -13 -39 -4 -12 6 -50 12 -85 11 -39 0 -69 5 -81 14 -22 17 -38 19
-29 5 3 -5 2 -10 -3 -10 -13 0 -23 27 -16 45 4 8 1 15 -5 15 -7 0 -14 -6 -17
-14 -3 -8 -12 -12 -20 -9 -13 5 -12 9 3 25 13 15 14 19 3 16 -8 -2 -18 -7 -21
-11 -8 -11 -40 3 -33 14 3 5 1 9 -5 9 -5 0 -13 -5 -16 -10 -4 -6 -11 -8 -16
-4 -5 3 -7 9 -4 14 3 5 1 11 -4 15 -6 3 -8 12 -5 19 3 8 -4 15 -18 18 -13 3
-40 13 -61 22 -29 13 -37 14 -37 3 0 -8 12 -20 27 -28 16 -8 34 -20 41 -26 11
-11 10 -13 -5 -13 -11 0 -24 5 -31 12 -19 19 -39 17 -62 -7 -14 -15 -29 -21
-45 -17 -21 4 -24 9 -20 32 5 26 2 29 -36 35 -22 4 -43 4 -46 1 -11 -11 7 -36
27 -36 11 0 20 -4 20 -10 0 -5 -6 -10 -14 -10 -7 0 -19 -6 -25 -14 -9 -11 -19
-12 -40 -5 -16 6 -32 9 -37 8 -5 -1 -17 1 -27 6 -13 5 -15 11 -6 21 14 17 3
34 -22 34 -21 0 -26 25 -6 33 9 4 9 8 1 14 -7 4 -15 36 -19 71 -7 62 -25 87
-25 35 0 -42 -16 -61 -24 -29 -8 33 -19 33 -36 1 -8 -14 -24 -28 -37 -31 -13
-4 -22 -11 -20 -18 2 -6 -5 -19 -17 -29 -14 -13 -17 -20 -9 -25 7 -4 10 -18 6
-30 -3 -12 -9 -19 -14 -16 -5 3 -9 0 -9 -6 0 -6 -8 -10 -17 -8 -16 3 -32 43
-36 89 -1 10 -8 14 -19 11 -12 -3 -18 1 -18 12 0 9 -7 16 -15 16 -8 0 -15 5
-15 10 0 6 -8 10 -18 10 -10 0 -27 6 -37 14 -14 10 -25 11 -37 5 -14 -7 -18
-6 -18 6 0 8 7 15 15 15 8 0 15 5 15 11 0 6 -9 9 -19 6 -13 -3 -18 -1 -15 8 3
7 14 15 24 18 17 4 18 8 7 31 l-12 26 -3 -25 c-4 -27 -22 -35 -22 -10 0 19
-29 19 -36 0 -10 -24 -21 -17 -28 17 -5 25 -2 36 11 46 10 7 22 11 28 9 5 -2
18 4 28 14 18 17 18 18 -3 29 -28 15 -65 -2 -75 -34 l-6 -21 -9 21 c-13 33
-27 37 -34 8 -9 -35 -32 -25 -28 13 3 25 -2 32 -27 43 -17 7 -31 15 -32 19 -1
3 -3 27 -5 53 -3 38 -1 48 11 48 8 0 15 -4 15 -10 0 -5 7 -10 15 -10 8 0 15 5
15 12 0 9 3 9 12 0 16 -16 28 -15 28 2 0 31 -61 50 -103 32 -14 -7 -17 -3 -17
18 0 33 -30 36 -31 4 -1 -21 -1 -21 -11 4 -12 34 13 68 36 49 10 -8 17 -6 31
9 20 22 45 27 45 8 0 -6 3 -8 6 -5 4 4 -7 20 -25 36 -17 16 -31 36 -31 44 0 8
-6 17 -13 20 -19 7 -13 62 11 92 17 21 19 31 11 46 -5 10 -7 19 -4 19 3 0 0
12 -8 28 -13 27 -14 73 -2 119 3 14 1 31 -6 39 -8 10 -9 22 -1 41 19 54 15
113 -12 152 -25 35 -25 38 -15 126 6 50 11 97 11 105 1 8 6 18 12 22 6 5 7 8
1 8 -6 0 -9 43 -7 116 2 64 0 124 -3 133 -4 9 -9 38 -11 64 -2 27 -9 67 -14
90 -8 35 -6 53 12 104 l22 63 -21 37 c-20 35 -20 41 -7 73 10 22 13 50 10 75
-16 117 -24 293 -16 365 2 14 -2 57 -8 95 -11 66 -10 73 12 120 33 69 38 86
27 99 -29 35 -46 182 -24 204 14 14 10 79 -6 112 -21 40 -21 91 0 165 21 72
22 77 6 111 -21 43 -21 68 -1 99 11 17 13 29 6 42 -10 19 -28 230 -24 298 4
104 4 125 -1 190 -5 51 -2 77 8 95 37 65 37 70 10 155 l-25 80 19 54 c13 39
16 62 10 84 -4 16 -8 48 -8 71 0 22 -1 65 -1 94 -1 43 4 59 25 83 30 36 30 36
6 96 -21 55 -36 189 -22 198 6 3 10 43 9 88 -1 45 1 102 4 127 3 25 1 88 -4
140 -17 181 -17 272 -1 318 11 29 21 42 35 42 11 0 23 11 28 26 12 31 13 74 1
74 -4 0 -6 11 -3 25 2 14 9 25 15 25 6 0 8 3 4 6 -3 3 -2 17 3 30 8 19 6 24
-7 24 -9 0 -21 -7 -28 -17 -7 -9 -14 -12 -18 -7 -5 8 2 26 47 112 10 17 33 44
51 58 19 14 34 33 34 42 0 9 5 40 11 67 7 28 12 58 12 67 -1 21 64 72 73 58 4
-6 2 -16 -3 -23 -5 -7 -8 -22 -6 -34 2 -13 0 -23 -6 -23 -5 0 -7 -6 -4 -14 3
-8 -6 -32 -20 -53 l-26 -38 30 -13 c16 -6 30 -19 30 -27 0 -19 26 -19 34 0 8
22 36 18 36 -5 0 -11 4 -20 9 -20 14 0 20 25 10 41 -5 8 -9 24 -9 36 0 16 -4
21 -16 16 -12 -4 -13 -7 -3 -14 8 -4 10 -11 6 -15 -10 -10 -57 -12 -63 -3 -6
10 17 59 28 59 5 0 6 -5 3 -10 -4 -7 3 -8 22 -4 40 10 45 14 40 35 -3 11 0 19
6 19 7 0 6 4 -2 9 -25 16 9 38 52 35 34 -3 37 -1 32 16 -4 12 -2 20 5 20 6 0
10 8 8 17 -2 10 4 19 14 21 12 2 15 -2 11 -18 -4 -17 -1 -20 18 -18 13 2 29 9
35 17 7 10 28 14 63 12 29 -1 51 3 51 9 0 5 -6 10 -12 10 -7 1 -2 7 12 15 l25
14 -25 -1 c-14 -1 -31 -6 -37 -11 -9 -6 -15 -4 -19 6 -8 23 4 37 32 37 13 0
24 5 24 11 0 7 9 9 28 3 15 -4 42 -7 60 -6 31 2 43 -10 22 -23 -17 -11 -11
-21 15 -23 14 -1 25 2 25 6 0 4 23 8 50 9 28 1 49 -1 46 -6 -10 -16 30 -38 53
-29 12 4 20 12 17 17 -3 5 5 8 19 7 14 0 25 -7 25 -14 0 -9 7 -11 19 -7 17 5
20 2 18 -22 -2 -22 3 -29 21 -31 25 -4 30 13 7 22 -8 3 -15 10 -15 17 0 7 7 8
18 4 38 -16 49 -16 72 3 20 16 22 22 12 35 -11 13 -10 16 5 21 10 3 31 4 46 2
21 -2 27 0 23 10 -3 8 -1 14 4 14 6 0 10 7 10 15 0 8 5 15 11 15 6 0 17 7 26
15 21 22 43 2 38 -36 -2 -20 1 -29 11 -29 8 0 14 -4 14 -10 0 -5 4 -10 9 -10
6 0 9 9 8 20 -1 12 -7 18 -14 16 -7 -3 -13 -1 -13 4 0 14 24 12 38 -2 9 -9 12
-8 12 5 0 20 16 23 24 5 5 -10 7 -10 12 0 5 10 9 10 20 1 8 -6 14 -8 14 -4 0
4 7 2 15 -5 13 -11 14 -10 9 4 -3 9 -10 16 -16 16 -5 0 -6 5 -3 10 3 6 11 10
16 10 6 0 8 -4 4 -9 -3 -6 3 -14 13 -20 15 -8 28 -9 61 -2 2 1 -2 7 -8 15 -9
11 -3 16 31 24 35 10 45 9 54 -3 15 -19 28 -19 20 0 -3 9 0 15 8 15 8 0 16 7
20 15 3 8 14 15 25 15 15 0 19 -5 14 -17 -4 -11 -3 -14 5 -9 7 4 12 3 12 -2 0
-5 14 -7 31 -3 16 3 29 10 29 15 -3 18 25 24 54 12 25 -10 51 -10 131 0 55 7
109 15 120 19 14 4 27 0 39 -14 11 -12 31 -21 45 -20 14 0 20 3 14 6 -15 5
-18 33 -4 33 5 0 22 -7 37 -15 36 -19 58 -19 112 0 38 14 46 14 65 0 12 -8 31
-15 44 -15 12 0 34 -5 50 -11 36 -15 195 -11 205 4 4 7 8 8 8 4 0 -5 13 1 28
12 16 11 50 21 78 24 27 2 -552 4 -1286 4 -734 1 -1346 -2 -1360 -6z m635
-131 c-3 -5 -11 -10 -16 -10 -6 0 -7 5 -4 10 3 6 11 10 16 10 6 0 7 -4 4 -10z
m265 -9 c0 -5 -7 -14 -15 -21 -11 -10 -18 -9 -30 3 -16 16 -16 16 38 26 4 0 7
-3 7 -8z m-635 -20 c3 -5 1 -12 -3 -15 -5 -3 -8 -15 -7 -28 2 -24 -15 -49 -28
-41 -4 2 0 12 9 21 16 15 15 17 -7 22 -20 5 -21 7 -6 13 9 3 17 13 17 22 0 17
16 20 25 6z m135 -21 c0 -5 -9 -10 -19 -10 -11 0 -23 5 -26 10 -4 6 5 10 19
10 14 0 26 -4 26 -10z m-345 -30 c3 -5 -1 -10 -10 -10 -9 0 -13 5 -10 10 3 6
8 10 10 10 2 0 7 -4 10 -10z m4860 -5420 c3 -5 1 -10 -4 -10 -6 0 -11 5 -11
10 0 6 2 10 4 10 3 0 8 -4 11 -10z m6 -193 c-13 -13 -26 -3 -16 12 3 6 11 8
17 5 6 -4 6 -10 -1 -17z m-38 -52 c-21 -16 -26 -14 -17 8 3 9 12 13 20 10 12
-4 11 -8 -3 -18z m-116 -517 c21 -8 33 -18 31 -28 -1 -8 1 -21 6 -28 5 -8 4
-18 -3 -25 -9 -9 -13 -6 -17 11 -4 12 -10 19 -15 17 -4 -3 -3 -16 3 -30 6 -14
7 -35 3 -52 -5 -15 -7 -34 -6 -42 1 -7 -2 -10 -9 -6 -6 4 -9 14 -6 22 9 22
-14 49 -25 31 -12 -18 -11 -30 1 -23 6 3 10 -1 10 -9 0 -13 -4 -13 -32 3 -36
19 -50 51 -23 51 9 0 13 5 10 10 -3 6 5 10 18 10 24 0 37 16 37 46 0 8 -6 13
-12 12 -7 -2 -14 7 -16 20 -4 25 0 26 45 10z m-4722 -140 c-4 -18 -12 -39 -19
-47 -8 -11 -8 -15 1 -18 20 -7 2 -33 -23 -33 -28 0 -30 7 -9 31 15 15 14 17
-10 23 -36 9 -33 36 5 36 19 0 30 5 30 14 0 12 10 21 28 25 2 1 0 -14 -3 -31z
m4520 -38 c3 -5 1 -10 -4 -10 -6 0 -11 5 -11 10 0 6 2 10 4 10 3 0 8 -4 11
-10z m92 -42 c9 -7 13 -7 13 1 0 6 7 11 15 11 10 0 15 -10 15 -30 0 -33 -11
-38 -30 -15 -11 14 -14 13 -24 -7 -16 -31 -41 -30 -40 2 1 14 -7 31 -18 39
-15 10 -17 15 -7 21 13 9 54 -3 76 -22z m-4517 -8 c11 -11 20 -26 20 -34 0
-14 21 -26 46 -26 8 0 11 6 8 15 -5 11 1 15 21 15 23 0 25 -3 19 -22 -3 -13
-10 -24 -15 -26 -4 -2 -6 -9 -3 -16 3 -8 -9 -12 -36 -13 -22 -1 -40 2 -40 8 0
5 10 9 22 9 16 0 19 3 11 11 -7 7 -17 8 -30 1 -10 -6 -31 -8 -46 -5 l-27 5 21
19 c12 11 19 19 16 19 -3 0 -13 3 -23 7 -12 4 -15 3 -10 -5 4 -7 1 -12 -8 -12
-13 0 -12 6 5 35 12 19 23 35 25 35 2 0 13 -9 24 -20z m715 -110 c3 -5 1 -10
-4 -10 -6 0 -11 5 -11 10 0 6 2 10 4 10 3 0 8 -4 11 -10z m1755 -110 c0 -5 -5
-10 -11 -10 -5 0 -7 5 -4 10 3 6 8 10 11 10 2 0 4 -4 4 -10z"/>
<path d="M2955 6893 c11 -3 26 -10 33 -16 7 -6 51 -10 97 -9 72 1 84 -1 88
-17 5 -20 37 -24 37 -4 0 7 -7 13 -15 13 -8 0 -15 5 -15 11 0 13 42 8 52 -6
11 -15 10 -27 -2 -20 -5 3 -10 2 -10 -3 0 -12 36 -21 106 -29 46 -4 52 -3 57
16 3 14 0 21 -9 21 -8 0 -14 5 -14 10 0 6 12 10 26 10 23 0 26 -3 21 -27 -2
-16 1 -43 7 -61 l12 -33 19 21 c14 16 26 19 49 15 21 -4 27 -3 17 3 -9 7 -10
12 -2 16 14 9 15 56 1 56 -5 0 -10 7 -10 15 0 18 0 18 75 0 47 -11 73 -12 120
-4 70 13 192 0 188 -19 -4 -16 64 -16 70 1 4 9 6 9 6 -1 1 -9 12 -10 40 -6 30
5 39 3 44 -10 4 -10 18 -16 37 -16 17 0 29 4 26 9 -3 5 1 14 8 20 11 10 20 6
40 -16 14 -15 26 -31 26 -35 0 -3 14 -9 31 -13 18 -4 29 -12 26 -19 -3 -7 -1
-19 3 -26 6 -10 13 -4 26 22 17 37 42 52 64 38 9 -6 9 -9 0 -15 -6 -4 -9 -17
-6 -30 5 -18 1 -24 -16 -28 -12 -4 -20 -9 -16 -12 3 -3 18 -1 33 5 20 7 31 7
41 -1 11 -9 14 -7 14 7 0 15 2 16 9 5 6 -9 6 -22 0 -33 -7 -14 -6 -16 6 -12 8
4 15 1 15 -5 0 -6 5 -11 11 -11 5 0 9 10 7 23 -2 17 2 23 24 25 16 2 31 -4 40
-15 16 -21 96 -25 120 -6 8 7 18 10 22 6 4 -4 11 -2 15 5 5 8 19 10 39 6 35
-7 42 -28 15 -39 -14 -6 -10 -10 20 -21 21 -7 45 -11 55 -8 14 5 15 4 2 -5 -8
-6 -10 -11 -5 -12 6 0 21 -2 33 -5 16 -3 30 3 43 18 20 25 25 18 8 -13 -21
-40 13 -78 41 -45 12 15 44 11 35 -4 -3 -4 2 -24 11 -45 14 -35 14 -36 -4 -31
-13 5 -22 1 -27 -11 -6 -17 -7 -17 -21 1 -7 11 -17 17 -20 13 -4 -4 -1 -13 6
-22 14 -17 80 -21 80 -4 0 6 6 9 13 6 6 -2 11 -12 9 -22 -3 -12 1 -16 11 -12
20 8 67 -36 67 -63 0 -24 -4 -25 -25 -4 -12 13 -19 13 -30 4 -8 -6 -19 -9 -25
-5 -6 4 -10 -4 -10 -18 0 -23 2 -24 36 -17 20 5 42 6 49 3 14 -5 25 -118 13
-131 -8 -9 27 -148 42 -167 19 -23 4 -48 -22 -39 -20 6 -21 5 -10 -9 10 -11
10 -17 2 -22 -7 -4 -9 -16 -7 -27 3 -11 0 -21 -9 -25 -8 -3 -14 -15 -14 -27 0
-16 2 -18 9 -7 7 10 10 8 16 -10 4 -13 14 -32 23 -42 11 -13 13 -20 4 -29 -8
-8 -6 -15 8 -27 19 -16 46 -126 29 -115 -5 3 -9 0 -9 -6 0 -6 -3 -9 -7 -7 -5
3 -18 1 -31 -4 -19 -7 -21 -12 -12 -29 6 -11 22 -23 35 -26 28 -7 33 -29 10
-38 -8 -3 -15 -18 -15 -34 0 -15 -4 -32 -9 -37 -4 -6 -11 -24 -14 -41 -6 -29
-3 -32 23 -38 26 -5 29 -9 28 -39 -1 -19 2 -39 6 -45 4 -6 4 -22 0 -36 -5 -22
-9 -24 -31 -15 -22 8 -24 7 -14 -4 6 -8 9 -22 5 -31 -5 -12 0 -16 17 -16 21
-1 22 -2 7 -11 -25 -14 -22 -28 8 -56 18 -17 23 -27 16 -36 -5 -7 -9 -37 -8
-67 2 -40 -2 -58 -13 -67 -9 -7 -11 -13 -6 -13 6 0 10 -40 11 -97 2 -164 18
-283 39 -283 2 0 4 462 2 1028 l-2 1027 -33 67 c-38 78 -91 125 -175 156 -57
22 -58 22 -1045 21 -543 -1 -978 -4 -967 -6z m315 -33 c0 -5 -5 -10 -11 -10
-5 0 -7 5 -4 10 3 6 8 10 11 10 2 0 4 -4 4 -10z m1015 -18 c-7 -8 -35 7 -35
18 0 6 7 6 20 -2 10 -7 17 -14 15 -16z m93 10 c21 -17 23 -52 2 -52 -13 0 -32
29 -26 39 4 5 -2 14 -11 20 -14 8 -15 10 -3 10 8 1 25 -7 38 -17z m82 -7 c0
-8 -5 -15 -11 -15 -5 0 -8 4 -5 9 4 5 0 12 -6 14 -8 3 -6 6 5 6 9 1 17 -6 17
-14z m96 -72 c-11 -11 -19 6 -11 24 8 17 8 17 12 0 3 -10 2 -21 -1 -24z m-96
-1 c0 -13 -12 -22 -22 -16 -10 6 -1 24 13 24 5 0 9 -4 9 -8z m153 -11 c7 -29
-7 -45 -29 -33 -18 10 -18 11 -1 17 14 6 15 10 6 21 -9 11 -8 14 4 14 8 0 17
-9 20 -19z m-53 -5 c0 -11 -19 -15 -25 -6 -3 5 1 10 9 10 9 0 16 -2 16 -4z
m120 -16 c0 -5 -7 -10 -15 -10 -8 0 -15 5 -15 10 0 6 7 10 15 10 8 0 15 -4 15
-10z m90 -40 c0 -5 -7 -10 -15 -10 -8 0 -15 5 -15 10 0 6 7 10 15 10 8 0 15
-4 15 -10z m355 -750 c3 -5 1 -10 -4 -10 -6 0 -11 5 -11 10 0 6 2 10 4 10 3 0
8 -4 11 -10z"/>
<path d="M3553 6813 c9 -2 23 -2 30 0 6 3 -1 5 -18 5 -16 0 -22 -2 -12 -5z"/>
<path d="M1320 6778 c0 -8 5 -19 12 -26 15 -15 52 -16 43 -2 -4 6 -10 8 -15 5
-4 -3 -7 3 -6 12 0 10 -7 19 -16 21 -10 2 -18 -2 -18 -10z"/>
<path d="M3268 6763 c7 -3 16 -2 19 1 4 3 -2 6 -13 5 -11 0 -14 -3 -6 -6z"/>
<path d="M4550 6660 c0 -5 5 -10 11 -10 5 0 7 5 4 10 -3 6 -8 10 -11 10 -2 0
-4 -4 -4 -10z"/>
<path d="M4671 6636 c-10 -11 -10 -20 -1 -36 12 -22 12 -22 26 -2 14 20 10 52
-6 52 -4 0 -13 -6 -19 -14z"/>
<path d="M513 6605 c-6 -16 -12 -24 -12 -16 -1 11 -4 11 -16 1 -20 -16 -19
-40 1 -40 25 0 46 28 42 57 l-3 28 -12 -30z"/>
<path d="M441 6574 c0 -11 3 -14 6 -6 3 7 2 16 -1 19 -3 4 -6 -2 -5 -13z"/>
<path d="M4720 6580 c0 -5 9 -10 21 -10 11 0 17 5 14 10 -3 6 -13 10 -21 10
-8 0 -14 -4 -14 -10z"/>
<path d="M4775 6560 c-3 -5 -1 -10 4 -10 6 0 11 5 11 10 0 6 -2 10 -4 10 -3 0
-8 -4 -11 -10z"/>
<path d="M450 6529 c-20 -8 -22 -12 -10 -19 23 -15 37 -12 43 10 6 22 3 23
-33 9z"/>
<path d="M4662 6465 c2 -15 12 -21 41 -23 27 -2 37 1 37 11 0 23 -31 30 -45
11 -11 -16 -13 -16 -24 2 -11 18 -12 18 -9 -1z"/>
<path d="M4765 6430 c-3 -5 -1 -10 4 -10 6 0 11 5 11 10 0 6 -2 10 -4 10 -3 0
-8 -4 -11 -10z"/>
<path d="M4816 6425 c-3 -8 0 -15 7 -15 7 0 23 -3 37 -6 l25 -6 -25 21 c-30
25 -36 26 -44 6z"/>
<path d="M4910 6422 c0 -25 7 -31 30 -25 17 5 17 6 2 24 -21 24 -32 24 -32 1z"/>
<path d="M191 6379 c-17 -22 -27 -47 -24 -55 6 -17 29 -12 26 5 -2 6 4 11 12
11 8 0 15 6 15 13 0 8 9 22 20 32 11 10 17 22 14 26 -11 19 -35 7 -63 -32z"/>
<path d="M4694 6406 c-9 -24 8 -44 31 -35 11 4 14 8 8 8 -7 1 -13 7 -13 15 0
21 -19 30 -26 12z"/>
<path d="M4886 6365 c-3 -9 0 -15 8 -15 7 0 19 7 26 15 10 12 9 15 -8 15 -11
0 -22 -7 -26 -15z"/>
<path d="M280 6359 c0 -5 5 -7 10 -4 6 3 10 8 10 11 0 2 -4 4 -10 4 -5 0 -10
-5 -10 -11z"/>
<path d="M4790 6360 c0 -5 -9 -10 -20 -10 -12 0 -17 -5 -14 -13 8 -22 49 -13
52 11 2 12 -1 22 -7 22 -6 0 -11 -4 -11 -10z"/>
<path d="M4676 6333 c-6 -14 -5 -15 5 -6 7 7 10 15 7 18 -3 3 -9 -2 -12 -12z"/>
<path d="M2436 5805 c-30 -46 -39 -123 -33 -287 3 -95 1 -158 -4 -158 -5 0
-29 -18 -54 -41 -47 -44 -102 -125 -154 -226 l-31 -63 0 -345 0 -346 -34 36
c-30 32 -38 35 -88 35 -67 0 -103 -24 -118 -78 -13 -47 -13 -306 0 -353 14
-52 41 -72 103 -76 57 -4 117 22 117 52 0 8 4 15 9 15 4 0 9 -34 10 -77 1 -42
4 -79 6 -83 17 -27 38 -243 45 -460 8 -247 9 -259 44 -393 37 -145 91 -291
134 -367 15 -25 57 -91 95 -148 72 -108 123 -155 188 -172 36 -10 38 -13 49
-66 7 -31 10 -72 8 -90 -2 -19 0 -34 4 -34 11 0 10 108 -1 147 -9 31 -8 33 27
43 20 5 40 10 44 10 12 0 30 -111 24 -144 -5 -24 -4 -28 6 -18 15 15 14 70 -3
129 -12 44 -11 45 17 68 l29 24 28 -28 c16 -16 33 -44 37 -62 l8 -34 1 32 c1
23 -8 43 -30 68 -30 34 -31 38 -20 74 30 103 -7 243 -96 359 -20 26 -52 81
-71 122 -37 80 -146 399 -139 407 3 2 51 -74 107 -169 100 -169 175 -264 232
-294 14 -7 59 -57 98 -110 129 -172 196 -324 219 -495 17 -127 36 -195 82
-284 47 -91 62 -111 103 -132 30 -15 121 -14 159 2 16 7 18 3 15 -40 -4 -65
-30 -85 -118 -86 -75 -1 -116 -25 -143 -82 -14 -29 -23 -35 -58 -40 -22 -3
-49 -13 -60 -23 -29 -26 -23 -37 9 -14 32 23 92 38 92 22 0 -6 -15 -20 -32
-31 -49 -31 -95 -71 -82 -71 6 0 33 16 59 36 37 29 49 34 56 23 18 -28 8 -40
-61 -70 -38 -18 -70 -36 -70 -41 0 -4 19 1 42 13 23 12 58 27 77 33 33 12 36
11 65 -22 l30 -34 245 7 c135 4 258 9 272 10 20 2 38 -7 67 -35 24 -21 56 -40
76 -44 25 -5 40 -16 56 -43 11 -19 23 -33 27 -30 3 4 -2 18 -11 31 -9 14 -16
27 -16 29 0 3 18 7 39 11 22 3 46 8 53 11 9 4 19 -5 28 -22 7 -17 14 -23 17
-15 3 7 -1 19 -7 28 -15 17 -15 16 26 37 22 11 39 33 58 78 24 52 28 71 24
129 -4 77 -52 186 -112 257 -32 37 -36 47 -36 100 -1 32 -9 82 -19 110 -10 29
-15 53 -10 53 4 0 32 -24 62 -52 l56 -53 25 40 c13 22 32 68 42 103 15 54 16
73 6 138 -24 150 -116 317 -277 497 -81 91 -87 100 -91 149 -15 164 -71 305
-150 378 -25 23 -44 43 -42 45 2 1 26 0 55 -2 49 -5 53 -8 63 -39 15 -43 47
-84 68 -84 13 0 10 6 -11 23 -15 12 -34 40 -41 61 l-14 40 37 27 c52 37 83
112 89 214 l4 81 52 12 c76 18 240 104 333 175 195 148 236 182 277 233 70 86
91 137 91 224 0 65 -4 82 -29 125 -52 90 -122 169 -180 204 -111 67 -387 154
-707 222 l-157 34 -7 122 c-3 67 -12 162 -20 210 -13 87 -13 88 11 124 57 84
94 233 94 380 0 78 -2 89 -18 89 -28 0 -221 -120 -372 -231 l-26 -20 -80 27
c-103 35 -284 44 -417 21 l-88 -15 -102 75 c-56 42 -134 100 -173 130 -40 29
-78 53 -87 53 -8 0 -22 -11 -31 -25z m252 -148 l133 -99 77 10 c205 29 324 23
450 -23 l66 -24 96 68 c127 91 253 169 284 177 23 5 10 -19 -104 -200 -72
-114 -130 -211 -130 -216 0 -4 19 -16 43 -25 82 -31 95 -49 108 -150 14 -99
18 -379 7 -390 -11 -12 -197 108 -198 126 0 14 -232 208 -259 217 -14 5 -34
-37 -40 -81 -4 -21 -9 -38 -13 -37 -5 0 -57 0 -118 0 -98 0 -110 2 -108 18 4
45 -4 73 -29 102 -25 30 -30 32 -79 28 -35 -3 -66 -14 -92 -31 -51 -33 -92
-113 -92 -177 0 -41 -3 -48 -32 -65 -18 -10 -72 -56 -119 -102 -96 -93 -99
-93 -99 7 0 99 98 336 225 546 26 42 45 79 43 82 -2 4 -24 39 -49 77 -25 39
-75 124 -109 190 l-64 119 35 -24 c19 -13 94 -68 167 -123z m-204 -142 c16
-26 44 -65 64 -87 l35 -39 -47 -47 -47 -47 -29 34 c-22 26 -30 47 -35 100 -3
36 -8 86 -11 111 -2 25 -1 68 2 95 l7 50 17 -61 c9 -34 29 -83 44 -109z m-28
-306 c-28 -155 -39 -278 -34 -396 4 -111 6 -122 39 -183 39 -73 91 -130 119
-130 17 0 18 -9 19 -110 1 -107 22 -298 42 -388 5 -25 8 -46 7 -48 -12 -11
-78 -52 -78 -48 0 23 -52 228 -67 263 -30 69 -32 37 -7 -89 58 -292 88 -611
65 -681 -13 -40 3 -111 71 -319 53 -161 106 -276 162 -351 48 -63 90 -162 83
-191 -3 -10 -1 -16 4 -12 14 8 10 -118 -4 -144 l-13 -23 -45 34 c-123 95 -272
333 -344 552 -62 188 -99 433 -114 744 -8 185 -8 206 4 527 7 180 6 207 -11
255 -33 100 -17 327 46 638 16 80 28 147 25 149 -2 2 -52 -39 -111 -92 -60
-52 -110 -93 -113 -91 -6 6 86 157 123 202 16 19 43 44 60 54 l31 19 28 -28
28 -29 -15 -84z m474 -79 c26 -14 41 -77 34 -136 -8 -62 -20 -83 -65 -123 -60
-52 -108 -51 -166 2 -40 36 -26 148 24 208 44 52 125 75 173 49z m385 -85
c-20 -59 -17 -81 13 -113 37 -40 56 -40 93 -1 28 30 29 30 53 12 32 -23 32
-38 2 -68 -48 -48 -127 -45 -171 7 -60 71 -83 156 -56 207 l12 21 30 -22 c23
-17 28 -28 24 -43z m-578 -195 c39 -34 94 -40 142 -15 l29 14 -3 -32 c-2 -17
-4 -106 -5 -197 l-2 -165 -38 -33 -39 -32 -15 28 c-20 39 -82 92 -109 93 -12
1 -26 2 -32 4 -5 1 -29 3 -52 3 -51 2 -88 33 -128 107 l-27 50 106 102 c58 57
113 103 122 103 9 0 32 -13 51 -30z m859 -26 c129 -80 125 -73 85 -149 -36
-70 -148 -185 -180 -185 -10 0 -31 5 -47 10 -26 9 -29 15 -29 54 0 35 -7 53
-33 85 -38 48 -52 87 -52 149 0 43 0 44 30 37 36 -8 91 9 115 35 10 11 19 20
20 20 2 0 43 -25 91 -56z m294 -4 c153 -31 397 -96 513 -136 205 -72 272 -119
358 -251 43 -65 44 -69 44 -148 0 -133 -46 -201 -247 -362 -187 -149 -301
-215 -466 -265 l-43 -13 -3 -90 c-3 -91 -27 -169 -50 -162 -6 2 -27 35 -46 73
-32 63 -35 77 -35 154 0 64 5 95 20 125 22 44 106 135 127 136 7 0 47 0 88 -1
107 -2 153 21 255 123 99 99 155 202 155 284 0 100 -85 207 -207 263 -86 39
-321 71 -515 71 l-98 0 -2 62 c-4 125 4 167 29 162 10 -2 65 -14 123 -25z
m-166 -416 l6 -272 -38 -5 c-20 -3 -47 -8 -59 -12 -21 -7 -23 -4 -23 23 0 36
22 52 69 52 17 0 31 5 31 10 0 13 -51 13 -83 1 -23 -9 -25 -7 -30 26 -6 33 -2
39 36 73 23 21 39 42 34 46 -4 4 -23 -7 -42 -26 l-34 -33 -6 24 c-3 13 -9 60
-14 104 l-8 80 47 50 c26 28 59 70 74 94 15 23 29 41 30 39 2 -1 6 -125 10
-274z m-984 68 c45 -33 70 -97 70 -183 0 -107 -2 -111 -52 -93 -45 16 -78 18
-78 6 0 -4 27 -14 61 -21 l60 -12 -6 -32 c-4 -18 -9 -34 -11 -36 -1 -2 -18 6
-37 18 -19 11 -51 24 -73 29 -38 8 -39 9 -46 57 -3 28 -7 106 -7 174 l-1 124
48 -7 c26 -3 58 -14 72 -24z m815 -82 c9 -102 -5 -99 -28 5 -12 51 -13 73 -5
83 18 22 26 1 33 -88z m-407 64 l37 -16 -121 -43 c-128 -46 -178 -68 -206 -92
-26 -23 -31 2 -9 44 22 43 62 83 106 106 40 21 145 22 193 1z m769 -39 c151
-20 280 -50 322 -76 17 -10 39 -36 47 -55 14 -34 14 -39 -8 -83 -25 -50 -85
-100 -258 -215 -94 -63 -228 -136 -247 -136 -15 0 -23 61 -23 173 l0 99 30 -7
c19 -4 30 -3 30 4 0 6 -13 11 -28 11 l-29 0 -6 113 c-11 190 -12 187 22 187
17 0 83 -7 148 -15z m-1847 -94 c5 -11 10 -84 10 -166 0 -82 -5 -155 -10 -166
-6 -11 -21 -19 -35 -19 -14 0 -29 8 -35 19 -15 29 -13 324 2 339 18 18 56 14
68 -7z m1495 -121 c18 -20 18 -21 -8 -46 -15 -14 -27 -30 -27 -36 0 -6 10 -2
23 10 31 29 37 28 37 -6 0 -24 -7 -32 -40 -47 -22 -10 -40 -22 -40 -27 0 -4
18 -8 40 -8 34 0 40 -3 40 -21 0 -18 -4 -20 -30 -14 -39 9 -39 -3 0 -16 26
-10 29 -15 24 -37 -10 -42 -33 -82 -47 -82 -6 1 -27 14 -46 30 -44 37 -54 30
-15 -11 l29 -31 -70 4 c-50 4 -95 16 -157 41 l-87 37 -47 -31 c-53 -37 -206
-99 -242 -99 -21 0 -23 3 -17 33 l6 32 -23 -27 c-19 -22 -26 -25 -43 -16 -30
16 -30 16 -10 38 23 26 11 39 -14 16 -19 -17 -20 -17 -30 3 -6 11 -11 36 -11
56 0 32 4 38 30 48 33 13 42 32 10 22 -21 -7 -25 2 -14 29 5 13 9 14 20 5 21
-18 30 -2 11 19 -19 21 -21 31 -9 50 7 10 18 8 53 -7 71 -33 161 -22 198 22
12 15 17 14 55 -13 22 -16 53 -32 67 -35 34 -8 93 17 114 49 l17 25 36 -19
c58 -31 107 -27 148 14 19 19 34 41 34 50 0 22 13 20 35 -4z m-829 -96 c42
-23 42 -24 32 -62 -8 -32 -17 -43 -53 -60 -40 -20 -44 -20 -49 -4 -7 24 -26
133 -26 149 0 18 42 8 96 -23z m994 -16 c2 -122 16 -306 35 -463 13 -104 27
-221 31 -258 6 -59 10 -71 34 -89 16 -11 44 -44 64 -72 83 -122 108 -250 102
-522 -2 -104 -5 -227 -5 -274 -1 -47 -5 -124 -9 -172 l-7 -86 56 -11 c41 -8
67 -21 95 -47 21 -19 34 -33 27 -30 -12 7 -29 -31 -19 -41 3 -4 6 1 6 10 0 9
5 17 11 17 6 0 9 -7 6 -14 -4 -10 -1 -13 8 -10 18 7 35 -53 35 -124 0 -48 5
-60 46 -113 71 -93 99 -161 99 -244 0 -82 -11 -129 -27 -119 -7 5 -9 2 -5 -9
3 -9 -2 -25 -11 -37 -17 -21 -17 -21 -65 25 -26 25 -45 50 -42 55 3 6 0 10 -8
10 -25 0 -65 69 -148 255 -16 37 -38 109 -34 113 2 2 10 -5 17 -17 7 -12 16
-21 21 -21 19 0 -30 53 -65 71 -23 12 -36 24 -32 31 4 7 3 8 -5 4 -6 -4 -31 2
-54 13 -23 11 -80 25 -126 30 -47 6 -88 17 -93 23 -6 10 -8 10 -8 0 0 -9 -16
-11 -62 -7 -100 9 -157 55 -214 169 -27 56 -37 91 -45 166 -15 135 -16 143
-22 160 -3 8 -14 42 -26 76 -12 34 -21 66 -21 73 0 31 -119 187 -195 257 -126
115 -213 233 -332 450 -117 212 -140 274 -153 409 -6 66 -14 131 -17 145 -3
14 -2 22 2 18 4 -4 21 4 37 17 16 14 33 23 37 20 5 -2 14 -32 20 -66 12 -58
11 -62 -10 -85 -17 -18 -19 -24 -8 -24 8 0 20 5 27 12 13 13 11 19 51 -112 49
-162 96 -278 191 -475 101 -208 246 -361 503 -532 92 -62 126 -90 123 -102
-26 -89 -34 -248 -15 -316 6 -21 25 -53 43 -71 l32 -32 87 5 c66 5 87 3 87 -7
0 -10 3 -10 15 0 12 10 16 32 14 94 0 45 2 89 6 99 4 10 3 17 -4 17 -8 0 -12
18 -11 48 0 26 -2 115 -5 197 -7 159 -22 233 -60 300 -54 92 -94 330 -115 685
-14 233 -14 228 13 233 l22 4 -22 8 c-21 7 -23 13 -23 84 l1 76 20 -25 c17
-20 20 -34 17 -72 -6 -53 7 -63 23 -20 14 36 -4 95 -37 121 -17 13 -24 28 -22
43 2 19 8 22 33 20 17 -2 34 -8 40 -13 5 -5 15 -9 23 -9 30 0 -10 30 -55 41
-51 13 -51 27 -2 45 55 20 79 18 79 -8z m-987 -137 c-3 -11 1 -37 7 -57 12
-36 12 -39 -16 -61 l-29 -23 -11 38 c-26 89 -26 90 3 106 38 21 52 20 46 -3z
m530 -64 c62 -26 62 -29 -3 -52 -40 -14 -42 -14 -47 5 -7 26 -23 26 -23 0 0
-17 -7 -20 -39 -20 -51 0 -101 10 -101 21 0 5 6 9 13 9 7 0 35 15 62 34 55 38
55 38 138 3z m313 -54 c-3 -3 -12 0 -20 7 -14 11 -13 15 2 35 l17 23 3 -30 c2
-16 1 -32 -2 -35z m-26 -9 c28 -17 28 -17 34 -153 22 -446 57 -675 125 -809
62 -124 65 -235 8 -294 l-32 -33 -3 40 c-2 22 -7 43 -11 48 -4 4 -33 -4 -64
-18 l-56 -26 -42 21 c-31 16 -38 24 -28 31 10 6 8 8 -7 7 -12 -1 -54 20 -94
47 -136 93 -278 228 -374 358 -39 53 -165 319 -214 452 -41 111 -92 276 -91
291 0 5 14 20 30 33 30 23 30 23 65 5 19 -10 34 -22 34 -27 0 -4 -11 -30 -25
-57 -27 -54 -29 -60 -17 -60 5 0 21 27 37 60 26 55 31 60 55 55 14 -3 51 3 83
14 45 16 64 18 85 10 34 -13 42 -26 42 -69 0 -19 5 -42 11 -50 8 -11 9 0 6 43
l-6 57 51 0 51 0 -7 -77 c-4 -43 -16 -97 -26 -120 -10 -24 -14 -43 -9 -43 20
0 43 76 48 159 l6 84 45 13 c24 7 46 11 48 9 3 -3 0 -28 -6 -57 -5 -29 -8 -55
-6 -58 10 -10 23 26 29 81 l7 57 95 -4 c64 -2 103 -9 123 -20z m562 -1127 c32
-37 56 -72 53 -78 -4 -5 0 -9 7 -9 7 0 23 -16 36 -35 19 -30 20 -36 7 -41 -8
-4 -15 -10 -15 -15 0 -6 8 -5 19 0 15 9 22 6 34 -12 32 -50 58 -110 53 -123
-3 -8 -2 -13 3 -10 23 14 56 -176 44 -251 -6 -34 -23 -46 -23 -15 0 9 -8 39
-17 66 -35 96 -165 200 -275 220 -30 5 -38 11 -38 28 0 12 7 30 17 40 9 11 11
18 5 18 -9 0 -12 46 -12 162 l0 161 21 -19 c12 -10 48 -50 81 -87z m-450 -129
c4 -41 -27 -417 -36 -425 -2 -2 -16 2 -30 9 -40 18 -59 63 -64 152 -5 75 12
230 26 253 7 10 80 52 93 53 4 0 9 -19 11 -42z m393 -393 l30 -26 -40 7 c-52
9 -55 11 -55 40 0 28 12 24 65 -21z m-238 -395 c10 -11 22 -20 29 -20 17 0 31
-42 23 -70 -6 -20 -7 -21 -8 -5 -1 16 -3 17 -11 5 -12 -20 18 -38 31 -19 6 9
7 5 3 -13 -3 -16 -2 -28 3 -28 11 0 35 -119 27 -131 -3 -5 1 -9 8 -9 8 0 6 -5
-5 -11 -9 -6 -15 -14 -12 -18 2 -5 -2 -14 -10 -21 -8 -7 -15 -19 -15 -26 0
-11 -21 -14 -94 -14 -51 0 -121 -3 -155 -6 l-61 -7 0 44 c0 24 5 61 11 82 13
49 71 113 115 127 28 10 37 20 51 61 10 27 21 49 26 49 4 0 5 11 1 25 -8 32
18 35 43 5z m133 -362 c0 -13 -28 -9 -33 5 -2 6 -2 20 1 31 5 17 6 16 18 -5 7
-13 13 -27 14 -31z"/>
<path d="M2960 5482 c0 -5 19 -12 42 -16 23 -4 63 -19 90 -33 44 -24 51 -25
87 -13 47 15 67 27 60 34 -3 3 -27 -1 -52 -10 -45 -15 -48 -15 -99 10 -60 28
-128 44 -128 28z"/>
<path d="M2870 5434 c-39 -13 -130 -59 -130 -66 0 -12 3 -11 57 18 27 14 74
28 104 31 47 5 63 1 124 -28 66 -32 76 -33 185 -34 104 0 118 -2 148 -24 39
-27 59 -19 22 10 -44 34 -94 44 -154 30 -63 -14 -94 -8 -205 39 -65 28 -114
35 -151 24z"/>
<path d="M2710 5390 c0 -5 5 -10 10 -10 6 0 10 5 10 10 0 6 -4 10 -10 10 -5 0
-10 -4 -10 -10z"/>
<path d="M2811 5310 c-53 -19 -140 -83 -149 -108 -2 -7 25 9 60 36 75 56 138
77 205 68 32 -4 44 -3 37 4 -21 21 -97 21 -153 0z"/>
<path d="M3184 5306 c-11 -8 -15 -18 -10 -23 5 -4 11 -2 13 5 3 7 22 12 44 12
36 0 42 -4 72 -47 50 -74 84 -105 109 -101 13 2 21 7 18 13 -3 5 -11 9 -17 7
-23 -5 -53 18 -73 57 -39 77 -109 111 -156 77z"/>
<path d="M2796 5039 c-51 -40 -22 -139 43 -139 32 0 71 43 71 80 0 35 -38 80
-68 80 -11 0 -31 -9 -46 -21z"/>
<path d="M4003 3764 c-3 -8 -1 -25 5 -37 10 -19 11 -18 9 15 -2 42 -5 46 -14
22z"/>
<path d="M3995 3580 c-3 -5 -1 -10 4 -10 6 0 11 5 11 10 0 6 -2 10 -4 10 -3 0
-8 -4 -11 -10z"/>
<path d="M3995 3547 c-4 -10 -5 -21 -1 -24 10 -10 18 4 13 24 -4 17 -4 17 -12
0z"/>
<path d="M3837 2683 c-4 -6 0 -14 9 -17 8 -3 12 -10 9 -16 -3 -5 -1 -10 4 -10
15 0 14 12 -2 35 -9 11 -16 14 -20 8z"/>
<path d="M3371 2644 c0 -11 3 -14 6 -6 3 7 2 16 -1 19 -3 4 -6 -2 -5 -13z"/>
<path d="M3945 2640 c-8 -13 5 -13 25 0 13 8 13 10 -2 10 -9 0 -20 -4 -23 -10z"/>
<path d="M3340 2624 c0 -8 5 -12 10 -9 6 3 10 10 10 16 0 5 -4 9 -10 9 -5 0
-10 -7 -10 -16z"/>
<path d="M3280 2619 c0 -5 5 -7 10 -4 6 3 10 8 10 11 0 2 -4 4 -10 4 -5 0 -10
-5 -10 -11z"/>
<path d="M3920 2610 c-9 -6 -10 -10 -3 -10 6 0 15 5 18 10 8 12 4 12 -15 0z"/>
<path d="M3820 2579 c0 -5 5 -7 10 -4 6 3 10 8 10 11 0 2 -4 4 -10 4 -5 0 -10
-5 -10 -11z"/>
<path d="M3910 2416 c0 -9 5 -16 10 -16 6 0 10 4 10 9 0 6 -4 13 -10 16 -5 3
-10 -1 -10 -9z"/>
<path d="M3826 2338 c3 -4 11 -5 19 -1 21 7 19 12 -4 10 -11 0 -18 -5 -15 -9z"/>
<path d="M3905 2320 c-3 -5 -1 -10 4 -10 6 0 11 5 11 10 0 6 -2 10 -4 10 -3 0
-8 -4 -11 -10z"/>
<path d="M3857 2310 c6 -7 9 -18 7 -25 -3 -7 0 -16 6 -20 8 -5 10 2 8 21 -2
15 -10 29 -18 32 -12 3 -12 2 -3 -8z"/>
<path d="M3830 2280 c0 -5 5 -10 10 -10 6 0 10 5 10 10 0 6 -4 10 -10 10 -5 0
-10 -4 -10 -10z"/>
<path d="M3545 2130 c3 -5 8 -10 11 -10 2 0 4 5 4 10 0 6 -5 10 -11 10 -5 0
-7 -4 -4 -10z"/>
<path d="M3865 2110 c3 -5 8 -10 11 -10 2 0 4 5 4 10 0 6 -5 10 -11 10 -5 0
-7 -4 -4 -10z"/>
<path d="M3920 2100 c0 -5 5 -10 10 -10 6 0 10 5 10 10 0 6 -4 10 -10 10 -5 0
-10 -4 -10 -10z"/>
<path d="M3620 2080 c0 -5 5 -10 10 -10 6 0 10 5 10 10 0 6 -4 10 -10 10 -5 0
-10 -4 -10 -10z"/>
<path d="M3576 2042 c-3 -6 -1 -14 5 -17 15 -10 25 3 12 16 -7 7 -13 7 -17 1z"/>
<path d="M3995 2010 c3 -5 8 -10 11 -10 2 0 4 5 4 10 0 6 -5 10 -11 10 -5 0
-7 -4 -4 -10z"/>
<path d="M4104 1985 c-10 -8 -14 -15 -7 -15 6 0 15 5 18 10 4 6 10 8 15 5 5
-3 11 -1 15 5 9 15 -18 12 -41 -5z"/>
<path d="M3940 1933 c0 -16 10 -16 33 1 17 13 16 14 -7 12 -15 0 -26 -7 -26
-13z"/>
<path d="M4058 1883 c7 -3 16 -2 19 1 4 3 -2 6 -13 5 -11 0 -14 -3 -6 -6z"/>
<path d="M4086 1873 c-6 -14 -5 -15 5 -6 7 7 10 15 7 18 -3 3 -9 -2 -12 -12z"/>
<path d="M4136 1815 c4 -8 8 -15 10 -15 2 0 4 7 4 15 0 8 -4 15 -10 15 -5 0
-7 -7 -4 -15z"/>
<path d="M4060 1790 c0 -5 5 -10 10 -10 6 0 10 5 10 10 0 6 -4 10 -10 10 -5 0
-10 -4 -10 -10z"/>
<path d="M4072 1758 c-18 -18 -15 -27 8 -21 11 3 20 12 20 19 0 17 -12 18 -28
2z"/>
<path d="M4107 1744 c-5 -29 3 -30 31 -4 27 26 27 25 -2 26 -18 1 -25 -4 -29
-22z"/>
<path d="M4251 1724 c0 -11 3 -14 6 -6 3 7 2 16 -1 19 -3 4 -6 -2 -5 -13z"/>
<path d="M4070 1700 c0 -5 5 -10 10 -10 6 0 10 5 10 10 0 6 -4 10 -10 10 -5 0
-10 -4 -10 -10z"/>
<path d="M4145 1610 c3 -5 11 -10 16 -10 6 0 7 5 4 10 -3 6 -11 10 -16 10 -6
0 -7 -4 -4 -10z"/>
<path d="M4225 1450 c-3 -5 -1 -10 4 -10 6 0 11 5 11 10 0 6 -2 10 -4 10 -3 0
-8 -4 -11 -10z"/>
<path d="M4091 2674 c0 -11 3 -14 6 -6 3 7 2 16 -1 19 -3 4 -6 -2 -5 -13z"/>
<path d="M4060 2655 c7 -9 15 -13 17 -11 7 7 -7 26 -19 26 -6 0 -6 -6 2 -15z"/>
<path d="M4060 2546 c0 -2 7 -6 15 -10 8 -3 15 -1 15 4 0 6 -7 10 -15 10 -8 0
-15 -2 -15 -4z"/>
<path d="M4060 2520 c0 -6 7 -10 15 -10 8 0 15 2 15 4 0 2 -7 6 -15 10 -8 3
-15 1 -15 -4z"/>
<path d="M4185 2501 c-3 -5 -1 -12 5 -16 5 -3 10 1 10 9 0 18 -6 21 -15 7z"/>
<path d="M4266 2431 c-3 -5 1 -14 8 -20 12 -10 13 -8 9 8 -6 23 -9 25 -17 12z"/>
<path d="M4246 2311 c-6 -10 22 -37 29 -29 8 7 -5 38 -15 38 -5 0 -11 -4 -14
-9z"/>
<path d="M3790 1730 c-17 -11 -13 -15 23 -24 21 -5 27 -3 27 10 0 10 -3 14 -7
11 -3 -4 -11 -3 -17 3 -7 5 -18 5 -26 0z"/>
<path d="M3850 1724 c0 -8 5 -12 10 -9 6 3 10 10 10 16 0 5 -4 9 -10 9 -5 0
-10 -7 -10 -16z"/>
<path d="M3845 1500 c-3 -5 -1 -10 4 -10 6 0 11 5 11 10 0 6 -2 10 -4 10 -3 0
-8 -4 -11 -10z"/>
<path d="M3856 1454 c-9 -23 -2 -28 13 -10 7 8 8 17 3 20 -6 3 -13 -1 -16 -10z"/>
<path d="M3826 1425 c4 -8 8 -15 10 -15 2 0 4 7 4 15 0 8 -4 15 -10 15 -5 0
-7 -7 -4 -15z"/>
<path d="M1910 5560 c0 -5 4 -10 9 -10 6 0 13 5 16 10 3 6 -1 10 -9 10 -9 0
-16 -4 -16 -10z"/>
<path d="M1180 5475 l0 -55 66 0 65 0 -1 -47 c-1 -27 -1 -171 -1 -320 l1 -273
55 0 55 0 0 320 0 319 63 3 62 3 3 53 3 52 -185 0 -186 0 0 -55z"/>
<path d="M1600 5154 l0 -376 123 3 c109 4 126 7 155 27 57 41 67 72 67 207 0
102 -3 125 -20 155 -28 48 -94 80 -163 80 l-53 0 1 123 c1 67 1 130 1 140 -1
14 -11 17 -56 17 l-55 0 0 -376z m220 -33 c5 -11 10 -62 10 -114 0 -109 -7
-120 -73 -121 l-42 -1 -3 128 -3 127 50 0 c39 0 53 -4 61 -19z"/>
<path d="M2020 5155 l0 -375 55 0 55 0 1 68 c1 77 1 663 0 675 -1 4 -26 7 -56
7 l-55 0 0 -375z"/>
<path d="M5020 4926 c-9 -12 -9 -21 2 -42 18 -37 38 -42 38 -10 0 19 -5 26
-20 26 -23 0 -26 10 -8 28 7 7 9 12 6 12 -3 0 -11 -7 -18 -14z"/>
<path d="M4959 4853 c-10 -11 -10 -14 -1 -9 8 5 12 1 12 -10 0 -16 1 -16 15 2
8 10 15 22 15 27 0 13 -27 7 -41 -10z"/>
<path d="M4916 4848 c3 -5 10 -6 15 -3 13 9 11 12 -6 12 -8 0 -12 -4 -9 -9z"/>
<path d="M4955 4791 c-8 -14 3 -51 15 -51 5 0 6 12 4 27 -6 33 -10 38 -19 24z"/>
<path d="M5046 4771 c-4 -5 -2 -12 4 -16 5 -3 10 -18 10 -32 0 -32 11 -24 14
11 3 27 -18 55 -28 37z"/>
<path d="M5096 4555 c4 -8 11 -15 16 -15 6 0 5 6 -2 15 -7 8 -14 15 -16 15 -2
0 -1 -7 2 -15z"/>
<path d="M5125 4531 c-23 -7 -29 -47 -9 -55 7 -3 22 6 32 19 11 13 22 21 26
18 3 -3 6 -3 6 0 0 12 -35 24 -55 18z"/>
<path d="M5160 4451 c-6 -16 -9 -39 -5 -50 3 -12 8 -71 10 -132 3 -62 7 -114
10 -117 3 -3 5 70 5 161 0 92 -2 167 -4 167 -2 0 -9 -13 -16 -29z"/>
<path d="M1424 4398 c-26 -12 -43 -46 -51 -103 -5 -40 -4 -42 23 -48 42 -8 53
1 56 46 2 35 7 43 26 45 39 6 52 -15 52 -79 l0 -59 -35 0 c-33 0 -35 -2 -35
-35 0 -33 2 -35 35 -35 l35 0 0 -69 c0 -75 -12 -95 -52 -89 -20 3 -23 9 -26
56 l-3 52 -40 0 c-39 0 -39 0 -39 -40 0 -52 21 -103 51 -124 14 -9 43 -16 71
-16 39 0 54 6 80 29 l33 29 0 197 0 197 -33 29 c-26 24 -41 29 -80 28 -26 0
-57 -5 -68 -11z"/>
<path d="M1640 4375 c0 -34 1 -35 40 -35 l40 0 0 -220 0 -220 40 0 40 0 0 220
0 220 39 0 c46 0 51 5 44 43 l-5 27 -119 0 -119 0 0 -35z"/>
<path d="M5032 4372 c-13 -9 -7 -42 7 -42 4 0 13 11 19 25 12 27 1 34 -26 17z"/>
<path d="M5167 4003 c-11 -10 -8 -76 3 -93 8 -11 10 1 8 43 -2 31 -3 57 -4 57
0 0 -4 -3 -7 -7z"/>
<path d="M5160 3746 c0 -8 5 -18 10 -21 6 -3 10 3 10 14 0 12 -4 21 -10 21 -5
0 -10 -6 -10 -14z"/>
<path d="M411 3616 c-33 -18 -50 -53 -51 -103 0 -42 1 -43 34 -43 33 0 35 2
38 36 4 44 29 65 56 48 21 -13 29 -98 11 -120 -6 -8 -22 -14 -35 -14 -21 0
-24 -5 -24 -34 0 -29 4 -34 33 -42 32 -10 32 -11 35 -76 3 -59 0 -68 -18 -78
-36 -19 -60 3 -60 55 0 45 0 45 -35 45 -35 0 -37 -2 -37 -40 0 -56 4 -71 27
-98 49 -58 156 -49 189 17 10 18 16 56 16 95 0 54 -4 70 -24 93 l-24 28 24 28
c45 53 25 180 -32 206 -33 15 -93 13 -123 -3z"/>
<path d="M706 3602 c-8 -36 -63 -375 -71 -434 l-6 -48 35 0 c34 0 35 2 42 45
l6 45 48 0 c52 0 60 -8 60 -61 0 -27 2 -29 40 -29 22 0 40 5 40 11 0 6 -9 66
-20 133 -10 66 -26 168 -35 226 -23 147 -17 137 -79 139 -52 1 -55 -1 -60 -27z
m74 -179 c6 -49 14 -100 16 -115 5 -27 4 -28 -36 -28 -35 0 -41 3 -37 18 3 9
10 55 17 102 19 140 24 142 40 23z"/>
<path d="M940 3613 c0 -10 17 -67 37 -126 l38 -108 -37 -107 c-56 -164 -55
-152 -14 -152 l34 0 32 95 c17 52 33 95 35 95 2 0 18 -43 35 -95 l32 -95 40 0
c28 0 39 4 35 13 -2 6 -22 65 -43 130 l-38 117 37 113 c20 62 37 118 37 125 0
7 -12 11 -32 9 -30 -2 -33 -6 -61 -91 -16 -48 -33 -84 -37 -79 -4 4 -18 40
-30 78 -28 86 -35 95 -71 95 -21 0 -29 -5 -29 -17z"/>
<path d="M1288 3601 l-33 -29 -3 -189 c-2 -173 -1 -191 17 -220 43 -69 168
-65 203 7 24 48 26 355 3 400 -22 42 -53 60 -107 60 -39 0 -54 -6 -80 -29z
m110 -53 c8 -8 12 -63 12 -180 0 -157 -1 -168 -20 -178 -14 -8 -26 -8 -40 0
-19 10 -20 21 -20 178 0 172 4 192 40 192 9 0 21 -5 28 -12z"/>
<path d="M1597 3622 c-3 -4 -7 -86 -11 -182 -8 -212 -13 -241 -37 -247 -16 -5
-19 -15 -19 -74 l0 -69 35 0 c33 0 35 2 35 35 l0 35 85 0 85 0 0 -35 c0 -34 1
-35 40 -35 l40 0 0 70 c0 55 -3 70 -15 70 -12 0 -15 33 -17 218 l-3 217 -107
2 c-59 1 -109 -1 -111 -5z m143 -252 l0 -180 -51 0 c-44 0 -50 2 -44 17 4 13
20 215 25 336 0 4 16 7 35 7 l35 0 0 -180z"/>
<path d="M1907 3624 c-4 -4 -7 -119 -7 -256 l0 -248 39 0 c45 0 36 -19 96 200
15 52 30 106 35 120 5 15 9 -41 9 -147 l1 -173 35 0 35 0 -2 253 -3 252 -39 0
-39 0 -34 -100 c-19 -55 -39 -122 -46 -150 -11 -48 -12 -43 -17 100 l-5 150
-25 3 c-14 2 -29 0 -33 -4z"/>
<path d="M5165 3450 c-3 -5 -1 -10 4 -10 6 0 11 5 11 10 0 6 -2 10 -4 10 -3 0
-8 -4 -11 -10z"/>
<path d="M5159 3353 c-5 -46 -1 -73 11 -73 9 0 7 97 -3 106 -2 3 -6 -12 -8
-33z"/>
<path d="M5153 2933 c-8 -21 -15 -56 -14 -78 1 -22 2 -80 4 -130 2 -89 10
-120 27 -110 9 6 14 355 5 355 -3 0 -13 -17 -22 -37z"/>
<path d="M1370 2841 c-76 -19 -89 -57 -90 -259 0 -209 21 -252 122 -252 38 0
54 6 80 29 29 25 32 35 36 95 l4 66 -36 0 c-35 0 -36 -1 -36 -41 0 -22 -5 -49
-10 -60 -13 -24 -56 -25 -69 -1 -14 26 -14 322 0 338 6 8 22 14 35 14 26 0 44
-31 44 -76 0 -21 5 -24 35 -24 l35 0 0 48 c0 64 -28 108 -77 121 -21 6 -40 10
-43 10 -3 -1 -16 -4 -30 -8z"/>
<path d="M1022 2588 l3 -253 105 0 105 0 0 35 0 35 -67 3 -68 3 0 69 0 70 55
0 55 0 0 40 0 40 -55 0 -55 0 0 70 0 70 70 0 70 0 0 35 0 35 -110 0 -110 0 2
-252z"/>
<path d="M1610 2798 c-1 -88 -11 -344 -15 -364 -3 -12 -14 -24 -25 -27 -15 -4
-20 -13 -20 -41 0 -41 11 -44 65 -22 54 23 59 42 65 241 l5 180 35 0 35 0 3
-218 2 -218 38 3 37 3 3 253 2 252 -115 0 -115 0 0 -42z"/>
<path d="M1900 2585 l0 -255 40 0 c37 0 40 2 49 38 52 190 75 270 82 287 4 11
8 -54 8 -152 l1 -173 35 0 35 0 0 255 0 255 -44 0 -43 0 -42 -142 c-24 -79
-44 -147 -46 -153 -2 -5 -4 59 -4 143 l-1 152 -35 0 -35 0 0 -255z"/>
<path d="M5156 2242 c-9 -27 0 -177 10 -180 5 -1 9 43 9 98 0 95 -6 123 -19
82z"/>
<path d="M1443 2162 c-20 -3 -23 -9 -23 -53 l0 -49 50 0 50 0 0 49 c0 46 -2
49 -27 52 -16 2 -38 3 -50 1z"/>
<path d="M1250 2110 l0 -50 50 0 50 0 0 50 0 50 -50 0 -50 0 0 -50z"/>
<path d="M772 1828 c3 -209 10 -239 63 -274 40 -26 104 -28 148 -6 l37 20 0
-149 0 -149 60 0 60 0 0 375 0 375 -60 0 -60 0 0 -168 c0 -135 -3 -172 -16
-190 -18 -26 -59 -29 -92 -6 -21 15 -22 21 -22 190 l0 174 -61 0 -61 0 4 -192z"/>
<path d="M1229 1785 c-1 -129 -1 -246 -1 -260 0 -14 0 -77 1 -140 l1 -115 155
0 c155 0 155 0 161 24 3 13 4 36 2 51 l-3 28 -100 1 -100 1 0 110 0 110 80 3
80 3 -3 49 c-4 55 2 51 -92 55 -25 1 -51 2 -57 3 -10 2 -13 30 -13 102 l0 100
38 1 c20 1 66 2 102 2 l65 2 0 50 0 50 -157 3 -158 3 -1 -236z"/>
<path d="M5113 1971 c-10 -27 -9 -30 11 -34 21 -4 21 -4 -1 -6 -22 -1 -22 -4
-17 -63 4 -35 6 -90 5 -124 -1 -49 2 -64 19 -79 11 -10 20 -24 20 -31 0 -17
16 -26 19 -11 1 7 4 94 7 195 l4 182 -28 0 c-21 0 -30 -7 -39 -29z"/>
<path d="M1620 1325 l0 -55 55 0 55 0 0 55 0 55 -55 0 -55 0 0 -55z"/>
<path d="M1820 1325 l0 -55 55 0 55 0 0 55 0 55 -55 0 -55 0 0 -55z"/>
<path d="M2020 1325 l0 -56 58 3 57 3 1 53 1 52 -59 0 -58 0 0 -55z"/>
<path d="M4976 1094 c-4 -10 -1 -14 6 -12 15 5 23 28 10 28 -5 0 -13 -7 -16
-16z"/>
<path d="M5000 1030 c0 -5 5 -10 11 -10 5 0 7 5 4 10 -3 6 -8 10 -11 10 -2 0
-4 -4 -4 -10z"/>
<path d="M4915 880 c-15 -6 -8 -9 28 -9 26 -1 47 4 47 9 0 12 -47 12 -75 0z"/>
<path d="M258 623 c7 -3 16 -2 19 1 4 3 -2 6 -13 5 -11 0 -14 -3 -6 -6z"/>
<path d="M4770 364 c-25 -14 -25 -14 14 -14 33 0 37 2 26 15 -7 8 -13 15 -14
14 0 -1 -12 -7 -26 -15z"/>
<path d="M861 273 c0 -23 -8 -49 -17 -57 -14 -15 -14 -16 0 -16 9 0 16 -6 17
-12 0 -7 4 -3 9 9 5 11 5 43 0 70 l-8 48 -1 -42z"/>
<path d="M1005 190 c4 -6 11 -8 16 -5 14 9 11 15 -7 15 -8 0 -12 -5 -9 -10z"/>
</g>
</svg>
